<svg width="298" height="320" viewBox="0 0 298 320" fill="none" xmlns="http://www.w3.org/2000/svg">
<path d="M154.908 316.896C146.175 318.49 137.871 319.286 129.995 319.286C101.034 319.286 76.9197 313.337 57.6513 301.442C38.3748 289.542 23.9539 272.232 14.3723 249.504C4.79078 226.772 0 198.946 0 166.016C0 133.729 5.59059 105.155 16.7677 80.3002C27.9469 55.4451 45.1398 35.8504 68.3526 21.5098C91.5593 7.16926 120.622 0 155.546 0C188.549 0 215.644 6.10872 236.834 18.3221C258.02 30.5396 273.51 46.7366 283.306 66.9151C293.098 87.0998 298 109.509 298 134.149C298 152.631 295.013 170.266 289.056 187.045C283.093 203.828 274.415 217.476 263.027 227.992C251.633 238.507 238.377 243.765 223.261 243.765C214.741 243.765 207.449 242.123 201.381 238.826C195.312 235.535 190.999 231.129 188.444 225.603C187.806 223.481 187.272 221.251 186.848 218.912C186.419 216.577 186.314 213.922 186.528 210.945C186.739 207.759 186.794 204.842 186.688 202.182C186.577 199.529 186.419 196.82 186.211 194.057C185.573 191.298 183.546 189.172 180.142 187.684C177.155 200.006 172.259 210.306 165.448 218.593C156.717 234.525 145.007 242.49 130.315 242.49C119.456 242.49 109.283 239.624 99.8126 233.887C90.3343 228.152 82.7249 219.229 76.9764 207.121C71.2258 195.012 68.3526 180.145 68.3526 162.511C68.3526 143.391 71.9689 127.673 79.2118 115.351C86.4466 103.032 96.4027 94.0024 109.074 88.2654C121.742 82.5304 136.274 79.6618 152.671 79.6618C163.101 79.6618 172.365 80.9365 180.46 83.4859C188.549 86.0352 195.737 89.5946 202.018 94.16C208.297 98.7314 213.886 104.307 218.786 110.888C218.786 140.842 218.997 168.036 219.424 192.461C219.849 199.049 221.392 204.042 224.055 207.438C226.715 210.838 230.708 212.537 236.034 212.537C241.359 212.537 246.253 209.406 250.726 203.137C255.197 196.873 258.71 188.639 261.265 178.442C263.821 168.244 265.098 157.73 265.098 146.896C265.098 127.778 261.587 110.201 254.559 94.16C247.533 78.1246 235.819 65.0587 219.424 54.9664C203.025 44.8781 181.521 39.8299 154.906 39.8299C128.501 39.8299 106.039 45.3568 87.5137 56.4006C68.9904 67.4484 54.936 82.6394 45.3544 101.968C35.7729 121.3 30.9801 143.181 30.9801 167.608C30.9801 190.764 34.5985 210.577 41.8393 227.035C49.0761 243.5 60.4152 256.245 75.8567 265.273C91.292 274.299 110.935 278.815 134.786 278.815C140.743 278.815 147.082 278.179 153.791 276.904C160.499 275.63 166.936 273.927 173.114 271.806L180.46 309.725C172.154 312.912 163.636 315.302 154.908 316.894V316.896ZM168.163 189.754C175.511 181.789 179.504 171.327 180.142 158.368C180.565 145.413 180.78 132.877 180.78 120.768C171.198 116.944 160.977 115.033 150.116 115.033C135.634 115.033 123.606 118.649 114.025 125.867C104.443 133.091 99.6506 144.139 99.6506 159.007C99.6506 166.23 101.297 173.137 104.601 179.718C107.9 186.306 112.636 191.619 118.816 195.651C124.989 199.689 132.119 201.705 140.214 201.705C151.497 201.705 160.817 197.721 168.163 189.754Z" fill="#FC2020"/>
</svg>
