<svg width="31" height="10" viewBox="0 0 31 10" fill="none" xmlns="http://www.w3.org/2000/svg">
<path d="M0 0H2.11092V3.97983L5.86218 0H8.49748L4.74622 3.7916L8.8605 9.6H6.21176L3.32101 5.28403L2.11092 6.50756V9.6H0V0Z" fill="white"/>
<path d="M11.8142 4.34286H14.1268C14.6108 4.34286 14.9738 4.23529 15.2159 4.02017C15.4579 3.80504 15.5789 3.45546 15.5789 2.97143C15.5789 2.50532 15.4579 2.16919 15.2159 1.96303C14.9738 1.7479 14.6108 1.64034 14.1268 1.64034H11.8142V4.34286ZM9.70325 0H14.8797C15.31 0 15.6954 0.0717088 16.036 0.215126C16.3856 0.34958 16.6814 0.537815 16.9234 0.779832C17.1744 1.02185 17.3626 1.3042 17.4881 1.62689C17.6226 1.94062 17.6898 2.28123 17.6898 2.64874C17.6898 3.21345 17.5688 3.70196 17.3268 4.11429C17.0937 4.52661 16.7083 4.84034 16.1705 5.05546V5.08235C16.4304 5.15406 16.6456 5.26611 16.8159 5.41849C16.9862 5.5619 17.1251 5.73669 17.2327 5.94286C17.3402 6.14006 17.4164 6.35966 17.4612 6.60168C17.515 6.8437 17.5509 7.08571 17.5688 7.32773C17.5778 7.48011 17.5867 7.65938 17.5957 7.86555C17.6047 8.07171 17.6181 8.28235 17.636 8.49748C17.6629 8.71261 17.6988 8.91877 17.7436 9.11597C17.7974 9.3042 17.8736 9.46555 17.9722 9.6H15.8612C15.7447 9.29524 15.673 8.93221 15.6461 8.51092C15.6192 8.08964 15.5789 7.68627 15.5251 7.30084C15.4534 6.79888 15.301 6.43137 15.068 6.19832C14.8349 5.96527 14.454 5.84874 13.9251 5.84874H11.8142V9.6H9.70325V0Z" fill="white"/>
<path d="M21.8267 5.88908H24.3141L23.104 2.36639H23.0771L21.8267 5.88908ZM22.0284 0H24.1931L27.783 9.6H25.5914L24.8653 7.46219H21.2754L20.5225 9.6H18.3981L22.0284 0Z" fill="white"/>
<path d="M28.4898 7.52941H30.6007V9.6H28.4898V7.52941Z" fill="white"/>
</svg>
