<svg width="758" height="211" viewBox="0 0 758 211" fill="none" xmlns="http://www.w3.org/2000/svg">
<path d="M512.971 94.5827C509.06 94.7893 505.457 94.8907 502.167 94.8907C499.699 94.8907 497.537 94.4813 495.685 93.656C496.505 92.2187 497.537 90.776 498.773 89.3347C500.416 87.072 501.805 85.2747 502.939 83.9333C504.068 82.5974 505.973 80.6933 508.648 78.224C512.971 74.3173 516.673 70.716 519.759 67.4213L500.007 50.4467C494.244 56.8267 490.949 60.7387 490.129 62.1747C488.277 64.4413 486.835 66.1867 485.807 67.4213C484.775 68.656 483.339 70.2 481.487 72.0507C480.663 72.668 479.736 73.3907 478.708 74.2107C478.091 72.7733 477.783 71.1253 477.783 69.2733C477.783 66.1867 477.884 62.6893 478.091 58.78C478.708 52.6067 479.017 46.54 479.017 40.5707H455.561C455.561 46.744 455.871 53.0227 456.488 59.3973C456.897 62.8973 457.105 66.0853 457.105 68.964C457.105 70.816 456.691 72.36 455.871 73.5933C454.837 72.976 453.811 72.3587 452.783 71.7413C450.516 70.304 448.771 69.0707 447.536 68.0373C446.301 67.0107 444.451 65.568 441.981 63.7173C437.659 59.396 433.031 55.4893 428.092 51.9893L411.733 70.1987C416.259 74.1093 420.993 77.9147 425.932 81.6187C428.192 83.6773 429.992 85.22 431.332 86.248C432.668 87.2813 434.367 88.7173 436.424 90.5693C437.244 91.6013 437.968 92.628 438.585 93.656C436.733 94.48 434.573 94.8907 432.104 94.8907C428.809 94.8907 425.208 94.7893 421.303 94.5827C414.512 93.9653 408.031 93.6573 401.859 93.6573V118.348C405.971 118.348 409.265 118.247 411.733 118.04C414.204 117.837 417.391 117.631 421.303 117.423C425.208 117.22 429.019 117.113 432.721 117.113C434.984 117.113 437.041 117.529 438.895 118.348C437.659 120.2 436.733 121.743 436.116 122.977C434.264 124.829 432.821 126.325 431.796 127.453C430.763 128.587 429.119 130.284 426.857 132.545C422.537 136.457 418.524 140.468 414.821 144.583L434.573 161.559C439.715 155.8 442.907 151.991 444.143 150.139C445.58 148.287 446.967 146.589 448.308 145.047C449.644 143.503 450.932 142.115 452.167 140.879C453.401 139.644 454.736 138.617 456.179 137.793C456.589 140.06 456.796 142.423 456.796 144.892C456.796 147.569 456.691 150.756 456.488 154.46C455.871 160.223 455.561 165.88 455.561 171.435H479.017C479.017 165.471 478.708 159.296 478.091 152.916C477.884 149.42 477.783 146.127 477.783 143.04C477.783 141.396 478.091 139.852 478.708 138.411C479.944 138.825 481.072 139.443 482.104 140.263C484.367 141.705 486.116 142.94 487.351 143.967C488.585 144.999 490.332 146.435 492.597 148.288C496.917 152.608 501.548 156.52 506.487 160.016L522.844 141.807C518.521 137.9 513.892 134.196 508.955 130.696C506.487 128.844 504.635 127.407 503.399 126.375C502.164 125.348 500.623 123.804 498.771 121.745C497.737 120.719 496.812 119.585 495.992 118.351C497.844 117.531 500.004 117.116 502.473 117.116C505.761 117.116 509.364 117.223 513.275 117.425C520.268 118.043 526.749 118.351 532.719 118.351V93.66C528.601 93.66 525.259 93.7653 522.689 93.968C520.113 94.176 516.873 94.3827 512.967 94.5854L512.971 94.5827Z" fill="#FC2020"/>
<path d="M76.0307 83.392C79.6067 79.816 82.8307 76.0667 85.7053 72.14C88.5773 68.2173 92.12 62.6067 96.3267 55.3147L104.74 43.1173H67.724C63.656 53.0747 59.2387 61.9773 54.4733 69.8267C50.4053 77.26 45.4293 84.76 39.5413 92.3307C33.652 99.9027 29.3733 103.899 26.712 104.319C25.308 104.319 24.116 104.076 23.136 103.583C22.1533 103.093 21.5227 102.499 21.2427 101.795C21.6627 99.832 22.1893 97.624 22.82 95.1693C23.4507 92.7173 24.1867 89.948 25.028 86.8627C26.5693 81.8147 27.9 75.892 29.024 69.0907C30.144 62.2907 31.0907 54.368 31.8627 45.3253C32.632 36.2813 32.9467 26.08 32.8093 14.724V0H0V168.255H32.8093C32.8093 166.715 32.8787 165.383 33.02 164.259V159.421C33.02 153.532 32.7053 148.943 32.0733 145.645C31.4427 142.352 30.6347 137.969 29.6547 132.501C29.0933 130.819 28.7093 129.557 28.4987 128.715C28.288 127.873 28.1827 126.685 28.1827 125.139C33.6507 121.775 38.6987 118.551 43.3253 115.464C46.408 118.409 48.7573 121.039 50.3707 123.352C51.9813 125.664 53.7 129.419 55.524 134.603C58.6067 141.195 60.8867 146.801 62.3587 151.428C63.8307 156.056 66.108 161.665 69.1933 168.253H104.107C102.004 162.365 99.828 156.759 97.5867 151.428C93.5187 141.473 89.4533 133.129 85.388 126.401C81.32 119.671 77.6747 114.728 74.4507 111.573C71.224 108.419 68 105.863 64.776 103.896C62.672 102.776 60.9173 101.515 59.5187 100.111C59.5187 99.4107 59.7293 98.7107 60.1493 98.008C67.1587 91.8387 72.4533 86.9667 76.028 83.3907L76.0307 83.392Z" fill="#FAFAFA"/>
<path d="M191.632 42.484C188.267 41.5053 184.409 41.012 180.064 41.012C175.296 41.012 171.125 42.2053 167.549 44.588C163.973 46.9733 160.924 49.9187 158.4 53.4213C155.876 56.928 153.563 60.9933 151.46 65.62C149.495 68.984 147.848 72.0347 146.517 74.768C145.184 77.5027 143.957 80.1307 142.837 82.6547C141.996 82.6547 141.365 82.2347 140.944 81.3933C140.523 80.552 140.172 79.6427 139.892 78.6587C139.892 75.576 140.065 73.0853 140.419 71.192C140.767 69.2987 141.575 66.3907 142.837 62.464C144.099 58.2573 145.045 54.9293 145.676 52.4733C146.307 50.0227 146.623 46.9 146.623 43.1147H115.916V168.253H148.725C148.864 162.648 148.936 156.896 148.936 151.007C148.936 145.4 148.725 141.157 148.305 138.283C147.885 135.411 147.323 131.447 146.623 126.4C145.919 121.915 145.429 118.339 145.151 115.673C144.868 113.012 144.731 109.225 144.731 104.315C144.731 94.3613 146.939 86.7213 151.356 81.3907C155.772 76.064 161.836 73.3987 169.549 73.3987C173.335 73.3987 177.016 73.6813 180.591 74.24C184.167 74.8027 187.847 75.9227 191.633 77.6053V42.4813L191.632 42.484Z" fill="#FAFAFA"/>
<path d="M268.509 45.5333C260.235 42.6613 249.719 41.2227 236.961 41.2227C225.604 41.2227 213.684 42.9053 201.207 46.2693V78.028C208.637 76.0653 217.191 74.104 226.865 72.1387C235.137 70.5973 241.799 69.8253 246.845 69.8253C254.276 69.8253 259.955 71.124 263.881 73.716C267.805 76.312 269.771 80.7627 269.771 87.072C269.771 90.0173 269.629 93.0347 269.351 96.116H245.795C228.548 96.116 214.983 99.5173 205.097 106.316C195.212 113.119 190.269 123.109 190.269 136.287C190.269 147.224 193.563 155.708 200.155 161.736C206.743 167.765 215.087 170.78 225.183 170.78C234.016 170.78 241.831 168.467 248.633 163.839C255.433 159.212 261.427 151.361 266.616 140.283C267.316 140.283 267.983 140.356 268.615 140.493C269.245 140.633 269.699 140.985 269.981 141.544C269.981 143.511 269.804 145.087 269.455 146.277C269.103 147.471 268.577 149.189 267.877 151.429C266.753 154.795 265.912 157.565 265.353 159.736C264.791 161.912 264.512 164.752 264.512 168.255H293.957V86.02C293.957 75.0827 291.781 66.3227 287.437 59.7293C283.089 53.1413 276.78 48.408 268.508 45.5333H268.509ZM257.993 135.445C253.925 139.515 249.403 142.387 244.428 144.069C239.449 145.752 234.717 146.593 230.232 146.593C225.323 146.593 221.468 145.577 218.664 143.544C215.859 141.513 214.457 138.601 214.457 134.816C214.457 131.312 215.752 128.4 218.348 126.087C220.94 123.775 224.585 122.059 229.284 120.935C233.98 119.813 239.695 119.252 246.425 119.252H265.985C264.723 125.983 262.059 131.38 257.993 135.445Z" fill="#FAFAFA"/>
<path d="M390.911 126.403C386.843 119.672 383.197 114.729 379.973 111.575C376.747 108.42 373.523 105.864 370.299 103.897C368.195 102.777 366.44 101.516 365.041 100.112C365.041 99.412 365.252 98.712 365.672 98.0094C372.681 91.84 377.976 86.968 381.551 83.392C385.125 79.816 388.351 76.0667 391.225 72.14C394.097 68.2173 397.64 62.6067 401.847 55.3147L410.26 43.1173H373.244C369.176 53.0747 364.759 61.9773 359.993 69.8267C355.925 77.26 350.949 84.76 345.061 92.3307C339.172 99.9027 334.893 103.899 332.232 104.319C330.828 104.319 329.636 104.076 328.656 103.583C327.673 103.093 327.043 102.499 326.763 101.795C327.183 99.832 327.709 97.624 328.34 95.1693C328.971 92.7173 329.707 89.948 330.548 86.8627C332.089 81.8147 333.42 75.892 334.544 69.0907C335.664 62.2907 336.611 54.368 337.383 45.3253C338.152 36.2813 338.467 26.08 338.329 14.724V0H305.52V168.255H338.329C338.329 166.715 338.399 165.383 338.54 164.259V159.421C338.54 153.532 338.225 148.943 337.593 145.645C336.963 142.352 336.155 137.969 335.175 132.501C334.613 130.819 334.229 129.557 334.019 128.715C333.808 127.873 333.703 126.685 333.703 125.139C339.171 121.775 344.219 118.551 348.845 115.464C351.928 118.409 354.277 121.039 355.891 123.352C357.501 125.664 359.22 129.419 361.044 134.603C364.127 141.195 366.407 146.801 367.879 151.428C369.351 156.056 371.628 161.665 374.713 168.253H409.627C407.524 162.365 405.348 156.759 403.107 151.428C399.039 141.473 394.973 133.129 390.908 126.401L390.911 126.403Z" fill="#FAFAFA"/>
<path d="M621.311 48.584C621.869 50.128 622.291 51.3187 622.573 52.16C622.852 53.0013 622.993 54.1933 622.993 55.736C622.711 56.4387 622.327 56.86 621.836 56.9973C621.343 57.1387 620.748 57.208 620.048 57.208C617.663 52.0213 613.771 47.9547 608.376 45.0093C602.976 42.0653 596.772 40.5933 589.763 40.5933C581.068 40.5933 573.148 42.348 565.996 45.8507C558.845 49.3573 553.167 54.5107 548.96 61.3093C544.753 68.1133 542.651 76.42 542.651 86.232C542.651 90.3013 543.177 93.9093 544.228 97.064C545.279 100.219 546.575 102.953 548.119 105.265C549.66 107.579 551.552 109.649 553.797 111.469C555.197 112.593 556.391 113.645 557.373 114.624C558.352 115.607 559.265 116.517 560.108 117.359V118.831C558.143 120.092 556.144 121.427 554.113 122.827C552.079 124.229 550.081 125.771 548.119 127.453C545.873 129.136 544.087 130.996 542.756 133.028C541.421 135.061 540.757 137.412 540.757 140.073C540.757 143.859 541.915 147.612 544.228 151.324C546.541 155.041 550.012 158.16 554.639 160.684V162.156C551.132 163.7 548.257 165.977 546.016 168.992C543.772 172.005 542.651 175.407 542.651 179.192C542.651 188.724 547.1 196.296 556.007 201.905C564.909 207.512 578.264 210.319 596.072 210.319C609.112 210.319 619.976 208.705 628.672 205.481C637.364 202.255 643.848 197.7 648.127 191.811C652.403 185.921 654.541 178.981 654.541 170.989C654.541 160.615 651.071 152.939 644.131 147.96C637.189 142.985 627.128 140.493 613.949 140.493C607.077 140.493 599.505 140.703 591.235 141.124C585.205 141.407 579.736 141.544 574.829 141.544C571.044 141.544 568.343 140.913 566.732 139.652C565.119 138.391 564.313 136.497 564.313 133.973C564.313 132.572 564.661 131.311 565.365 130.187C566.065 129.065 567.257 127.945 568.941 126.823C572.307 127.947 575.461 128.645 578.405 128.925C582.049 129.628 586.467 129.84 591.656 129.557C601.048 128.997 609.461 126.927 616.895 123.353C624.325 119.777 630.319 114.729 634.877 108.211C639.432 101.689 641.712 94.1547 641.712 85.6013C641.712 77.4707 641.571 69.4787 641.292 61.6253C642.692 56.156 643.605 51.076 644.027 46.376C644.447 41.6813 644.657 39.7693 644.657 31.4947L618.999 31.508C618.716 35.1547 618.579 38.7867 618.579 42.4307L621.312 48.584H621.311ZM569.677 76.136C572.832 72.772 576.897 70.1773 581.876 68.3547C586.852 66.5333 591.867 65.62 596.915 65.62C603.644 65.62 609.145 67.164 613.424 70.2467C617.7 73.332 619.839 77.8907 619.839 83.9173C619.839 88.6867 618.12 92.6827 614.685 95.9053C611.248 99.1333 606.972 101.551 601.856 103.161C596.736 104.775 591.793 105.58 587.028 105.58C580.857 105.58 575.635 104.108 571.36 101.164C567.081 98.2187 564.945 93.8747 564.945 88.124C564.945 83.496 566.523 79.5 569.677 76.136ZM606.168 186.343C599.996 186.343 593.792 185.712 587.555 184.451C581.313 183.189 576.125 181.401 571.991 179.088C567.853 176.775 565.504 174.004 564.945 170.781C565.084 168.119 566.837 165.873 570.203 164.051C577.353 164.051 583.348 164.191 588.185 164.471C593.023 164.753 599.437 165.173 607.429 165.732C614.58 166.435 620.013 167.625 623.729 169.308C627.443 170.991 629.303 173.513 629.303 176.88C629.303 183.189 621.591 186.343 606.168 186.343Z" fill="#FAFAFA"/>
<path d="M757.096 99.9013C757.096 88.124 755.168 77.7853 751.312 68.8787C747.453 59.976 741.743 53.036 734.172 48.0573C726.6 43.0827 717.273 40.5907 706.2 40.5907C695.263 40.5907 685.484 43.256 676.86 48.5827C668.237 53.9133 661.471 61.6227 656.564 71.7187C651.655 81.8133 649.203 93.7333 649.203 107.472C649.203 120.653 651.621 131.975 656.459 141.44C661.296 150.904 668.375 158.128 677.701 163.103C687.024 168.08 698.135 170.569 711.036 170.569C723.513 170.569 735.571 169.097 747.212 166.153V133.555C741.04 135.799 735.224 137.481 729.755 138.601C724.285 139.725 718.397 140.284 712.088 140.284C704.795 140.284 698.627 139.479 693.58 137.867C688.532 136.256 684.464 133.765 681.381 130.4C678.296 127.035 676.192 122.548 675.072 116.939H756.887C757.025 111.191 757.096 105.512 757.096 99.9013ZM707.145 98.2187C699.643 99.3427 688.671 99.9013 674.229 99.9013C674.649 93.5933 676.26 88.0547 679.067 83.2867C681.869 78.5213 685.761 74.768 690.739 72.0347C695.713 69.3 701.288 67.9347 707.459 67.9347C715.872 67.9347 721.793 70.1787 725.231 74.664C728.665 79.1533 730.593 85.3213 731.015 93.1733C722.601 95.4173 714.643 97.1 707.144 98.22L707.145 98.2187Z" fill="#FAFAFA"/>
</svg>
