<svg width="32" height="24" viewBox="0 0 32 24" fill="none" xmlns="http://www.w3.org/2000/svg">
<path d="M29.2186 13.2411C28.6678 13.27 28.1603 13.2842 27.6968 13.2842C27.3492 13.2842 27.0448 13.2269 26.784 13.1114C26.8995 12.9102 27.0448 12.7082 27.2189 12.5064C27.4503 12.1896 27.646 11.938 27.8056 11.7502C27.9646 11.5632 28.233 11.2967 28.6097 10.951C29.2186 10.4041 29.7401 9.89989 30.1746 9.43865L27.3926 7.06228C26.581 7.95545 26.1169 8.50311 26.0014 8.70414C25.7406 9.02147 25.5374 9.2658 25.3926 9.43865C25.2472 9.6115 25.045 9.82765 24.7841 10.0867C24.6681 10.1732 24.5376 10.2743 24.3928 10.3891C24.3058 10.1879 24.2624 9.95719 24.2624 9.69792C24.2624 9.2658 24.2767 8.77619 24.3058 8.22891C24.3928 7.36467 24.4363 6.51537 24.4363 5.67969H21.1326C21.1326 6.54393 21.1762 7.42291 21.2632 8.31533C21.3208 8.80531 21.3501 9.25162 21.3501 9.65462C21.3501 9.91389 21.2917 10.13 21.1762 10.3027C21.0307 10.2163 20.8861 10.1299 20.7413 10.0434C20.422 9.84221 20.1762 9.66955 20.0023 9.52489C19.8284 9.38116 19.5677 9.17919 19.2199 8.92011C18.6111 8.31514 17.9593 7.76823 17.2637 7.27825L14.9596 9.82746C15.597 10.3749 16.2639 10.9077 16.9594 11.4262C17.2778 11.7144 17.5313 11.9304 17.72 12.0743C17.9082 12.219 18.1474 12.42 18.4372 12.6793C18.5527 12.8237 18.6547 12.9675 18.7416 13.1114C18.4808 13.2267 18.1765 13.2842 17.8288 13.2842C17.3647 13.2842 16.8575 13.27 16.3074 13.2411C15.351 13.1547 14.4381 13.1116 13.5688 13.1116V16.5681C14.148 16.5681 14.612 16.5539 14.9596 16.525C15.3076 16.4966 15.7564 16.4677 16.3074 16.4386C16.8575 16.4102 17.3942 16.3953 17.9157 16.3953C18.2344 16.3953 18.5242 16.4535 18.7852 16.5681C18.6111 16.8274 18.4808 17.0434 18.3938 17.2162C18.133 17.4755 17.9298 17.6849 17.7854 17.8428C17.6398 18.0015 17.4083 18.2391 17.0898 18.5557C16.4813 19.1033 15.9161 19.6648 15.3945 20.2409L18.1765 22.6174C18.9007 21.8112 19.3503 21.2779 19.5244 21.0187C19.7268 20.7594 19.9221 20.5218 20.111 20.3058C20.2992 20.0897 20.4806 19.8953 20.6545 19.7223C20.8284 19.5495 21.0164 19.4057 21.2196 19.2904C21.2774 19.6077 21.3065 19.9385 21.3065 20.2842C21.3065 20.659 21.2917 21.1051 21.2632 21.6236C21.1762 22.4304 21.1326 23.2224 21.1326 24H24.4363C24.4363 23.1651 24.3928 22.3006 24.3058 21.4075C24.2767 20.9181 24.2624 20.457 24.2624 20.0249C24.2624 19.7947 24.3058 19.5786 24.3928 19.3768C24.5669 19.4349 24.7257 19.5213 24.8711 19.6361C25.1898 19.838 25.4362 20.0109 25.6101 20.1546C25.784 20.2991 26.03 20.5001 26.349 20.7596C26.9575 21.3644 27.6097 21.912 28.3053 22.4014L30.6092 19.8522C30.0004 19.3053 29.3483 18.7868 28.6529 18.2968C28.3053 18.0375 28.0445 17.8363 27.8704 17.6918C27.6965 17.5481 27.4794 17.3319 27.2185 17.0437C27.073 16.9 26.9427 16.7414 26.8272 16.5685C27.088 16.4537 27.3922 16.3957 27.74 16.3957C28.2031 16.3957 28.7106 16.4106 29.2614 16.439C30.2464 16.5254 31.1592 16.5685 32 16.5685V13.1119C31.4201 13.1119 30.9493 13.1267 30.5874 13.1551C30.2246 13.1842 29.7682 13.2131 29.218 13.2415L29.2186 13.2411Z" fill="#0C0C0C"/>
<path d="M12.0268 17.6957C11.4538 16.7535 10.9404 16.0615 10.4863 15.6199C10.0319 15.1783 9.57776 14.8204 9.12367 14.5451C8.82733 14.3883 8.58019 14.2117 8.3832 14.0152C8.3832 13.9172 8.41287 13.8192 8.47202 13.7208C9.45927 12.8571 10.205 12.1751 10.7085 11.6745C11.212 11.1738 11.6662 10.649 12.0711 10.0992C12.4756 9.55009 12.9746 8.76462 13.5671 7.74378L14.7521 6.03621H9.53852C8.96555 7.43019 8.34338 8.67652 7.6722 9.77538C7.09924 10.816 6.39838 11.866 5.56908 12.9258C4.73959 13.9859 4.13695 14.5453 3.76211 14.6041C3.56436 14.6041 3.39647 14.5701 3.25844 14.5011C3.12004 14.4326 3.03121 14.3493 2.99177 14.2507C3.05093 13.976 3.12511 13.6669 3.21393 13.3232C3.30276 12.98 3.40642 12.5923 3.52492 12.1603C3.74202 11.4536 3.92944 10.6245 4.08775 9.67235C4.2455 8.72038 4.37883 7.61125 4.48756 6.34532C4.59592 5.07921 4.64024 3.65107 4.6209 2.06129V0H0V23.5548H4.62109C4.62109 23.3392 4.63085 23.1528 4.65076 22.9954V22.3182C4.65076 21.4937 4.60644 20.8512 4.51742 20.3896C4.4286 19.9286 4.31479 19.315 4.17676 18.5495C4.0977 18.314 4.04362 18.1374 4.01394 18.0194C3.98427 17.9016 3.96944 17.7353 3.96944 17.5188C4.73959 17.0478 5.45058 16.5965 6.10223 16.1644C6.53641 16.5767 6.86731 16.9448 7.09454 17.2687C7.3214 17.5923 7.56347 18.118 7.82037 18.8437C8.25456 19.7666 8.57569 20.5515 8.78301 21.1992C8.99034 21.8471 9.31109 22.6323 9.74565 23.5546H14.6631C14.3669 22.7303 14.0604 21.9454 13.7448 21.1992C13.1718 19.8056 12.5992 18.6374 12.0266 17.6956L12.0268 17.6957Z" fill="#0C0C0C"/>
</svg>
