<svg width="320" height="320" viewBox="0 0 320 320" fill="none" xmlns="http://www.w3.org/2000/svg">
<path d="M272.452 187.929C289.554 189.439 305.403 190.194 320 190.194V129.816C309.933 129.816 301.759 130.076 295.476 130.571C289.177 131.078 281.254 131.586 271.704 132.08C262.141 132.588 253.332 132.835 245.286 132.835C239.25 132.835 233.966 131.833 229.436 129.819C231.441 126.301 233.963 122.778 236.989 119.25C241.007 113.719 244.404 109.32 247.173 106.04C249.936 102.773 254.592 98.1166 261.135 92.0775C271.704 82.5242 280.759 73.716 288.305 65.6627L240.005 24.1533C225.913 39.7556 217.856 49.3186 215.852 52.8328C211.322 58.3773 207.795 62.6464 205.283 65.6627C202.762 68.6823 199.248 72.4568 194.718 76.9829C192.704 78.4927 190.439 80.2595 187.924 82.2639C186.414 78.7497 185.663 74.7182 185.663 70.1888C185.663 62.6399 185.91 54.0888 186.414 44.529C187.924 29.4343 188.682 14.6 188.682 0H131.324C131.324 15.0946 132.082 30.4495 133.589 46.0387C134.588 54.5996 135.099 62.3959 135.099 69.4339C135.099 73.9633 134.083 77.7378 132.079 80.7541C129.551 79.2443 127.042 77.7345 124.527 76.228C118.986 72.7138 114.713 69.6942 111.697 67.1693C108.678 64.6573 104.151 61.1334 98.1156 56.604C87.5472 46.0387 76.2304 36.4854 64.1523 27.9246L24.1498 72.4535C35.2161 82.0166 46.7932 91.3193 58.8713 100.378C64.3996 105.412 68.802 109.186 72.0753 111.698C75.3422 114.223 79.4973 117.737 84.5277 122.263C86.532 124.788 88.3021 127.297 89.8119 129.812C85.2826 131.83 79.9984 132.829 73.9625 132.829C65.9061 132.829 57.1012 132.581 47.548 132.074C30.9406 130.564 15.0945 129.809 0 129.809V190.188C10.0543 190.188 18.1107 189.94 24.1466 189.433C30.1889 188.938 37.9818 188.431 47.548 187.923C57.098 187.428 66.4137 187.165 75.4691 187.165C81.0005 187.165 86.0342 188.18 90.5668 190.184C87.544 194.71 85.2826 198.485 83.7728 201.504C79.2467 206.034 75.7163 209.691 73.2077 212.45C70.6794 215.219 66.661 219.371 61.1295 224.903C50.5643 234.466 40.7541 244.276 31.6987 254.337L79.9984 295.847C92.5711 281.767 100.374 272.448 103.397 267.922C106.911 263.396 110.301 259.244 113.581 255.47C116.848 251.695 119.998 248.301 123.014 245.279C126.033 242.259 129.297 239.75 132.827 237.733C133.833 243.274 134.337 249.053 134.337 255.092C134.337 261.639 134.08 269.432 133.585 278.491C132.076 292.583 131.321 306.415 131.321 320H188.679C188.679 305.416 187.921 290.318 186.411 274.716C185.907 266.168 185.66 258.112 185.66 250.566C185.66 246.544 186.411 242.77 187.921 239.246C190.944 240.261 193.7 241.768 196.225 243.772C201.756 247.299 206.038 250.319 209.055 252.831C212.074 255.352 216.343 258.867 221.884 263.399C232.449 273.965 243.77 283.528 255.848 292.079L295.847 247.55C285.278 237.996 273.955 228.938 261.884 220.38C255.848 215.851 251.318 212.337 248.296 209.812C245.276 207.3 241.505 203.528 236.979 198.491C234.451 195.979 232.189 193.21 230.185 190.191C234.711 188.186 239.998 187.171 246.034 187.171C254.074 187.171 262.886 187.432 272.452 187.929Z" fill="#FC2020"/>
</svg>
