<svg width="259" height="72" viewBox="0 0 259 72" fill="none" xmlns="http://www.w3.org/2000/svg">
<path d="M175.154 32.3792C173.819 32.45 172.589 32.4846 171.465 32.4846C170.622 32.4846 169.884 32.3445 169.252 32.062C169.532 31.5699 169.884 31.076 170.306 30.5826C170.867 29.808 171.342 29.1927 171.729 28.7335C172.114 28.2762 172.765 27.6244 173.678 26.779C175.154 25.4416 176.418 24.2088 177.472 23.0809L170.727 17.2698C168.76 19.4539 167.635 20.7931 167.355 21.2847C166.722 22.0607 166.23 22.6582 165.879 23.0809C165.526 23.5035 165.036 24.0321 164.404 24.6657C164.122 24.877 163.806 25.1244 163.455 25.4051C163.244 24.9131 163.139 24.3489 163.139 23.7149C163.139 22.6582 163.174 21.4609 163.244 20.1226C163.455 18.0092 163.561 15.9324 163.561 13.8889H155.552C155.552 16.0022 155.657 18.1517 155.868 20.3339C156.008 21.5321 156.079 22.6235 156.079 23.609C156.079 24.243 155.937 24.7716 155.657 25.1938C155.304 24.9824 154.954 24.7711 154.603 24.5598C153.829 24.0677 153.233 23.6455 152.811 23.2917C152.39 22.9403 151.758 22.4464 150.915 21.8128C149.439 20.3335 147.858 18.9961 146.172 17.7979L140.586 24.0316C142.132 25.3704 143.748 26.6731 145.435 27.9411C146.206 28.6459 146.821 29.174 147.278 29.5259C147.735 29.8797 148.315 30.3713 149.017 31.0053C149.297 31.3586 149.544 31.7101 149.755 32.062C149.123 32.3441 148.385 32.4846 147.542 32.4846C146.417 32.4846 145.187 32.45 143.854 32.3792C141.535 32.1679 139.322 32.0624 137.215 32.0624V40.515C138.619 40.515 139.744 40.4803 140.586 40.4095C141.43 40.3402 142.518 40.2694 143.854 40.1982C145.187 40.1288 146.489 40.0923 147.753 40.0923C148.525 40.0923 149.228 40.2347 149.861 40.515C149.439 41.149 149.123 41.6771 148.912 42.0998C148.28 42.7338 147.787 43.2459 147.437 43.6321C147.084 44.0201 146.523 44.6011 145.751 45.3753C144.275 46.7145 142.905 48.0875 141.641 49.4961L148.385 55.3076C150.141 53.3362 151.231 52.0321 151.653 51.3981C152.143 50.7641 152.617 50.1831 153.075 49.6549C153.531 49.1264 153.971 48.6512 154.392 48.2281C154.814 47.8054 155.27 47.4539 155.762 47.1718C155.903 47.9478 155.973 48.7566 155.973 49.602C155.973 50.5185 155.937 51.6095 155.868 52.8775C155.657 54.8503 155.552 56.787 155.552 58.6885H163.561C163.561 56.6468 163.455 54.533 163.244 52.3489C163.174 51.1521 163.139 50.0247 163.139 48.968C163.139 48.4052 163.244 47.8766 163.455 47.3832C163.877 47.5251 164.262 47.7365 164.615 48.0172C165.387 48.5111 165.984 48.9337 166.406 49.2852C166.828 49.6385 167.424 50.1301 168.197 50.7646C169.673 52.2435 171.254 53.5827 172.94 54.7795L178.525 48.5458C177.049 47.2084 175.469 45.9403 173.783 44.7422C172.94 44.1082 172.308 43.6161 171.886 43.2628C171.464 42.9113 170.938 42.3828 170.305 41.678C169.953 41.3265 169.637 40.9386 169.357 40.5159C169.989 40.2352 170.727 40.0932 171.57 40.0932C172.692 40.0932 173.922 40.1297 175.258 40.1991C177.646 40.4105 179.859 40.5159 181.897 40.5159V32.0633C180.491 32.0633 179.35 32.0994 178.472 32.1688C177.593 32.24 176.487 32.3107 175.153 32.3801L175.154 32.3792Z" fill="#1C1C40"/>
<path d="M25.9607 28.5482C27.1817 27.324 28.2826 26.0405 29.2641 24.6962C30.2448 23.3534 31.4544 21.4326 32.8908 18.9363L35.7635 14.7607H23.1244C21.7354 18.1695 20.2271 21.2172 18.5999 23.9043C17.2109 26.449 15.5119 29.0165 13.5014 31.6083C11.4905 34.2004 10.0295 35.5684 9.12082 35.7122C8.64142 35.7122 8.23442 35.6291 7.89979 35.4602C7.56426 35.2927 7.34892 35.0892 7.25331 34.8481C7.39672 34.1763 7.57655 33.4204 7.79189 32.58C8.00724 31.7406 8.25854 30.7926 8.54582 29.7364C9.07211 28.0082 9.52646 25.9807 9.91025 23.6523C10.2927 21.3244 10.6159 18.6122 10.8795 15.5166C11.1422 12.4205 11.2496 8.92817 11.2028 5.04058V0H0V57.5999H11.2028C11.2028 57.0727 11.2264 56.6167 11.2747 56.2319V54.5759C11.2747 52.5598 11.1672 50.9887 10.9514 49.8599C10.7361 48.7325 10.4602 47.2321 10.1256 45.3602C9.93393 44.7842 9.80281 44.3524 9.73088 44.0639C9.65895 43.7759 9.62298 43.3692 9.62298 42.8397C11.49 41.6881 13.2137 40.5844 14.7934 39.5277C15.846 40.536 16.6482 41.4361 17.1991 42.228C17.749 43.0195 18.3359 44.3049 18.9587 46.0796C20.0113 48.3363 20.7898 50.2556 21.2924 51.8395C21.795 53.4239 22.5726 55.3441 23.6261 57.5995H35.5473C34.8293 55.5838 34.0863 53.6644 33.321 51.8395C31.932 48.4317 30.5439 45.5752 29.1558 43.2719C27.7667 40.9678 26.522 39.2757 25.4212 38.1958C24.3195 37.1158 23.2186 36.2408 22.1178 35.5675C21.3994 35.1841 20.8002 34.7523 20.3227 34.2717C20.3227 34.032 20.3946 33.7924 20.538 33.5518C22.9313 31.4398 24.7392 29.772 25.9598 28.5478L25.9607 28.5482Z" fill="#1C1C40"/>
<path d="M65.4328 14.5439C64.2837 14.2088 62.9666 14.04 61.4829 14.04C59.8549 14.04 58.4308 14.4485 57.2098 15.2642C55.9887 16.0807 54.9475 17.089 54.0857 18.2881C53.2239 19.4886 52.434 20.8803 51.7161 22.4642C51.045 23.6158 50.4827 24.6602 50.0284 25.5959C49.5731 26.5321 49.1543 27.4317 48.7718 28.2958C48.4846 28.2958 48.2692 28.152 48.1254 27.864C47.9815 27.576 47.8618 27.2647 47.7662 26.9278C47.7662 25.8725 47.8253 25.0199 47.946 24.3717C48.0648 23.7235 48.3407 22.728 48.7718 21.3838C49.2025 19.9437 49.5258 18.8044 49.7411 17.9636C49.9565 17.1246 50.0644 16.0556 50.0644 14.7598H39.5795V57.5995H50.7823C50.8297 55.6805 50.8542 53.7114 50.8542 51.6953C50.8542 49.7759 50.7823 48.3235 50.6389 47.3394C50.4955 46.3562 50.3034 44.9991 50.0644 43.2715C49.824 41.736 49.6569 40.5118 49.5617 39.5993C49.4652 38.6883 49.4183 37.3919 49.4183 35.7108C49.4183 32.3034 50.1722 29.688 51.6805 27.8631C53.1884 26.0396 55.259 25.1271 57.8927 25.1271C59.1852 25.1271 60.4422 25.2239 61.6627 25.4151C62.8838 25.6078 64.1403 25.9912 65.4333 26.5672V14.543L65.4328 14.5439Z" fill="#1C1C40"/>
<path d="M91.6826 15.5878C88.8572 14.6046 85.2665 14.1121 80.9105 14.1121C77.0325 14.1121 72.9625 14.6881 68.7021 15.8397V26.7119C71.2393 26.04 74.1598 25.3686 77.4632 24.6958C80.2877 24.1681 82.5622 23.9038 84.2854 23.9038C86.8226 23.9038 88.7616 24.3484 90.1023 25.2358C91.4422 26.1245 92.1133 27.6481 92.1133 29.808C92.1133 30.8163 92.065 31.8493 91.9699 32.9041H83.9267C78.0378 32.9041 73.4059 34.0685 70.0305 36.396C66.6552 38.7248 64.9675 42.145 64.9675 46.6561C64.9675 50.4003 66.092 53.3047 68.3429 55.3683C70.5923 57.4324 73.4414 58.4644 76.8887 58.4644C79.9048 58.4644 82.5732 57.6725 84.8959 56.0882C87.2178 54.5043 89.2642 51.8167 91.0361 48.024C91.2751 48.024 91.5028 48.0491 91.7186 48.0962C91.9339 48.1441 92.0887 48.2646 92.1852 48.4558C92.1852 49.1291 92.1247 49.6686 92.0054 50.0762C91.8852 50.4848 91.7058 51.0731 91.4668 51.84C91.083 52.992 90.7957 53.9406 90.605 54.6837C90.4128 55.4286 90.3177 56.4008 90.3177 57.5999H100.372V29.4479C100.372 25.7036 99.6288 22.7047 98.1456 20.4476C96.6609 18.1923 94.5066 16.5719 91.6821 15.5878H91.6826ZM88.0919 46.368C86.7029 47.7611 85.1586 48.7443 83.46 49.3204C81.76 49.8964 80.1443 50.1844 78.6128 50.1844C76.9365 50.1844 75.6203 49.8366 74.6629 49.1405C73.705 48.4453 73.2265 47.4485 73.2265 46.1526C73.2265 44.953 73.6686 43.9562 74.555 43.1642C75.44 42.3727 76.6847 41.7853 78.2891 41.4005C79.8925 41.0166 81.8438 40.8245 84.142 40.8245H90.8208C90.3896 43.1286 89.48 44.9763 88.0919 46.368Z" fill="#1C1C40"/>
<path d="M133.477 43.2724C132.088 40.9682 130.843 39.2762 129.742 38.1962C128.64 37.1162 127.539 36.2412 126.439 35.568C125.72 35.1846 125.121 34.7528 124.643 34.2721C124.643 34.0325 124.715 33.7928 124.859 33.5523C127.252 31.4403 129.06 29.7724 130.281 28.5482C131.501 27.324 132.602 26.0405 133.584 24.6962C134.565 23.3534 135.774 21.4326 137.211 18.9363L140.083 14.7607H127.444C126.055 18.1695 124.547 21.2172 122.92 23.9043C121.531 26.449 119.832 29.0165 117.821 31.6083C115.81 34.2004 114.349 35.5684 113.441 35.7122C112.961 35.7122 112.554 35.6291 112.22 35.4602C111.884 35.2927 111.669 35.0892 111.573 34.8481C111.717 34.1763 111.896 33.4204 112.112 32.58C112.327 31.7406 112.578 30.7926 112.866 29.7364C113.392 28.0082 113.846 25.9807 114.23 23.6523C114.613 21.3244 114.936 18.6122 115.199 15.5166C115.462 12.4205 115.57 8.92817 115.523 5.04058V0H104.32V57.5999H115.523C115.523 57.0727 115.546 56.6167 115.595 56.2319V54.5759C115.595 52.5598 115.487 50.9887 115.271 49.8599C115.056 48.7325 114.78 47.2321 114.445 45.3602C114.254 44.7842 114.123 44.3524 114.051 44.0639C113.979 43.7759 113.943 43.3692 113.943 42.8397C115.81 41.6881 117.534 40.5844 119.113 39.5277C120.166 40.536 120.968 41.4361 121.519 42.228C122.069 43.0195 122.656 44.3049 123.279 46.0796C124.331 48.3363 125.11 50.2556 125.612 51.8395C126.115 53.4239 126.892 55.3441 127.946 57.5995H139.867C139.149 55.5838 138.406 53.6644 137.641 51.8395C136.252 48.4317 134.864 45.5752 133.476 43.2719L133.477 43.2724Z" fill="#1C1C40"/>
<path d="M212.147 16.6321C212.337 17.1607 212.481 17.5683 212.578 17.8563C212.673 18.1444 212.721 18.5524 212.721 19.0805C212.625 19.3211 212.494 19.4653 212.326 19.5123C212.158 19.5607 211.955 19.5845 211.716 19.5845C210.901 17.8089 209.572 16.4167 207.73 15.4084C205.886 14.4005 203.768 13.8966 201.375 13.8966C198.406 13.8966 195.702 14.4973 193.26 15.6964C190.818 16.8969 188.879 18.6611 187.443 20.9885C186.006 23.3178 185.288 26.1614 185.288 29.5205C185.288 30.9135 185.468 32.1487 185.827 33.2287C186.186 34.3086 186.628 35.2448 187.155 36.0363C187.682 36.8282 188.328 37.5371 189.094 38.1601C189.572 38.5449 189.98 38.9051 190.315 39.2401C190.649 39.5765 190.961 39.8883 191.249 40.1763V40.6802C190.578 41.112 189.896 41.5689 189.202 42.0482C188.507 42.5284 187.825 43.056 187.155 43.6321C186.389 44.2081 185.779 44.8449 185.324 45.5405C184.868 46.2366 184.642 47.0413 184.642 47.9524C184.642 49.2482 185.037 50.5331 185.827 51.8039C186.617 53.0765 187.802 54.1441 189.382 55.0082V55.5121C188.184 56.0407 187.203 56.8203 186.437 57.8523C185.671 58.8839 185.288 60.0483 185.288 61.3442C185.288 64.6073 186.807 67.1995 189.849 69.1198C192.888 71.0392 197.448 72 203.529 72C207.981 72 211.691 71.4477 214.66 70.344C217.628 69.2394 219.842 67.6802 221.303 65.664C222.763 63.6479 223.493 61.2721 223.493 58.5361C223.493 54.9845 222.308 52.3567 219.939 50.6523C217.568 48.9493 214.133 48.0962 209.633 48.0962C207.287 48.0962 204.701 48.1678 201.877 48.3121C199.819 48.4088 197.951 48.4558 196.276 48.4558C194.983 48.4558 194.061 48.2399 193.511 47.8081C192.96 47.3763 192.685 46.7282 192.685 45.8641C192.685 45.3844 192.804 44.9526 193.044 44.5678C193.283 44.1839 193.69 43.8005 194.265 43.4162C195.414 43.801 196.491 44.0401 197.497 44.136C198.741 44.3765 200.249 44.4491 202.021 44.3524C205.228 44.1606 208.101 43.4518 210.639 42.2285C213.176 41.0043 215.222 39.2762 216.779 37.0446C218.334 34.8121 219.113 32.2327 219.113 29.3046C219.113 26.5211 219.064 23.7852 218.969 21.0967C219.447 19.2243 219.759 17.4852 219.903 15.8763C220.046 14.2691 220.118 13.6145 220.118 10.7818L211.357 10.7864C211.261 12.0348 211.214 13.2781 211.214 14.5256L212.147 16.6321H212.147ZM194.516 26.0642C195.594 24.9126 196.982 24.0243 198.682 23.4004C200.381 22.7769 202.093 22.4642 203.817 22.4642C206.114 22.4642 207.993 22.9928 209.454 24.0481C210.914 25.1043 211.644 26.6649 211.644 28.7281C211.644 30.3608 211.057 31.7288 209.884 32.832C208.711 33.9371 207.251 34.7646 205.504 35.316C203.756 35.8683 202.068 36.144 200.441 36.144C198.334 36.144 196.551 35.6401 195.091 34.6322C193.63 33.624 192.901 32.1368 192.901 30.1682C192.901 28.5838 193.439 27.2158 194.516 26.0642ZM206.976 63.7921C204.869 63.7921 202.75 63.5762 200.621 63.1444C198.49 62.7126 196.718 62.1005 195.306 61.3086C193.894 60.5166 193.092 59.5681 192.901 58.4649C192.948 57.5534 193.547 56.7847 194.696 56.1607C197.137 56.1607 199.184 56.2086 200.836 56.3045C202.488 56.4013 204.678 56.5451 207.407 56.7363C209.849 56.9769 211.704 57.3845 212.973 57.9605C214.24 58.5365 214.876 59.4002 214.876 60.5527C214.876 62.7126 212.242 63.7921 206.976 63.7921Z" fill="#1C1C40"/>
<path d="M258.511 34.2C258.511 30.1682 257.852 26.6289 256.536 23.5798C255.218 20.532 253.268 18.1562 250.683 16.4518C248.098 14.7488 244.913 13.8957 241.132 13.8957C237.398 13.8957 234.059 14.8082 231.114 16.6317C228.17 18.4566 225.859 21.0958 224.184 24.552C222.508 28.0078 221.67 32.0885 221.67 36.7917C221.67 41.3042 222.496 45.1799 224.148 48.4202C225.8 51.6601 228.217 54.1332 231.401 55.8362C234.585 57.5401 238.378 58.3923 242.783 58.3923C247.044 58.3923 251.161 57.8884 255.136 56.8805V45.7208C253.028 46.489 251.042 47.065 249.175 47.4485C247.307 47.8332 245.297 48.0245 243.143 48.0245C240.652 48.0245 238.546 47.7488 236.823 47.197C235.099 46.6456 233.71 45.7929 232.658 44.6408C231.604 43.4888 230.886 41.9528 230.504 40.0325H258.439C258.487 38.0648 258.511 36.1207 258.511 34.2ZM241.455 33.624C238.893 34.0087 235.147 34.2 230.216 34.2C230.359 32.0405 230.909 30.1444 231.867 28.5122C232.824 26.8808 234.153 25.5959 235.853 24.6602C237.552 23.724 239.455 23.2566 241.562 23.2566C244.435 23.2566 246.457 24.0248 247.63 25.5603C248.803 27.0972 249.461 29.2087 249.605 31.8967C246.732 32.6649 244.015 33.241 241.455 33.6244L241.455 33.624Z" fill="#1C1C40"/>
</svg>
