<svg width="204" height="251" viewBox="0 0 204 251" fill="none" xmlns="http://www.w3.org/2000/svg">
<path d="M46.3669 207.298H30.1943L29.844 235.499L21.7188 236.671L21.3988 229.758L20.5626 207.298H15.4202C12.8944 207.496 9.3191 208.471 4.86146 210.161L4.72451 242.884C6.8539 246.645 9.76026 249.295 13.5792 251H34.9851C40.4317 249.599 43.5659 247.528 46.4406 243.432L46.3642 207.298H46.3669Z" fill="white"/>
<path d="M83.2303 207.298H51.0523L50.8548 223.089L64.7755 222.115L61.565 251H79.7155V221.839L90.6391 221.337L90.913 211.257C88.9811 209.749 85.2688 207.832 83.2303 207.298Z" fill="white"/>
<path d="M122.392 209.673C120.461 208.808 114.851 207.646 110.57 207.298H100.543L88.1291 251H103.967L107.801 239.64L113.399 239.731L120.124 251H135.384L122.392 209.673ZM115.363 229.651C114.511 229.94 112.245 230.625 110.404 230.625C109.568 230.625 108.837 230.488 108.335 230.123L107.985 229.865L108.015 229.423C108.152 228.175 109.902 221.444 111.804 221.444H112.094L112.307 221.627C114.331 223.347 115.091 226.012 115.836 228.601L116.034 229.302L115.365 229.652L115.363 229.651Z" fill="white"/>
<path d="M171.488 232.133C171.488 232.133 177.219 231.019 178.395 226.103L178.242 213.769C175.625 209.597 171.456 208.242 167.729 207.298H139.932L140.283 251H155.192L157.094 238.011L165.918 251H181.771L171.486 232.133H171.488ZM162.481 221.946C161.69 223.287 160.93 224.581 158.769 224.581C158.161 224.581 157.446 224.474 156.578 224.246L156.304 224.109C154.707 222.815 153.961 221.673 153.961 220.531C153.961 219.13 155.087 218.049 155.939 217.363L156.152 217.18H156.426C159.819 217.257 162.026 217.987 162.574 221.444L162.62 221.718L162.481 221.946Z" fill="white"/>
<path d="M197.641 207.298H187.189L186.276 251H203.863L204 212.277C202.417 210.358 199.74 208.06 197.641 207.298Z" fill="white"/>
<path d="M201.07 44.5825C200.263 45.4708 194.258 54.7113 194.258 54.7113C189.7 64.2825 188.941 75.3207 192.306 85.522C192.306 85.5444 192.328 85.5655 192.339 85.5773C194.816 90.902 201.49 143.896 200.072 148.293C197.907 155.672 193.686 164.766 190.12 170.482C186.485 174.425 182.133 176.962 177.363 178.126C170.618 178.808 160.684 177.291 158.011 176.299H157.988C152.582 175.131 134.845 156.549 134.82 152.064C132.804 139.78 138.127 125.298 137.711 109.364V109.342L133.372 88.9316C130.689 82.6817 126.496 76.2802 120.178 69.7509C115.51 64.4539 84.2114 51.9566 84.2114 51.9566C76.6643 51.5441 56.998 59.8158 55.5324 60.9954C47.7114 66.1949 42.1924 75.3655 39.4124 85.6169L37.9283 108.951C39.1517 117.196 42.3622 124.731 47.8128 130.032C50.2662 132.425 63.5982 137.376 65.085 137.419C66.7574 137.207 82.5152 127.689 83.761 121.066C84.9014 115.038 83.7544 107.983 79.306 105.441C79.306 105.441 74.7061 104.454 74.6074 104.465C71.1953 104.713 68.5747 107.424 67.9308 110.791C67.4448 113.308 65.9792 114.553 64.362 114.776C62.5421 114.383 60.5497 113.077 59.6265 112.081C58.8878 110.61 56.4924 104.447 57.4985 99.5112C57.933 97.4024 58.6112 95.5348 59.5014 93.8952C62.097 90.8098 66.8681 87.1128 71.0149 85.0725C76.8935 83.4936 83.9032 84.1407 90.6628 86.6436C94.246 88.444 109.178 100.612 112.249 104.576C115.499 110.225 117.282 116.901 116.771 124.4C116.568 129.295 115.626 133.811 114.083 137.912C108.932 146.264 99.2159 156.836 95.0769 159.736C88.4346 163.537 80.6729 165.143 72.7874 166.431C70.5106 166.813 61.245 166.173 59.1604 165.892C56.6596 165.813 39.0095 171.588 39.0095 171.588C34.5834 174.49 30.6078 178.402 27.0443 183.093C26.507 183.438 25.7314 182.717 25.684 182.409C26.1567 180.884 26.7888 162.462 26.7888 162.462C25.547 155.97 22.7658 149.82 18.615 144.552C17.6918 143.383 1.34408 114.298 0.000861575 104.864C-0.0834187 97.2587 6.03612 61.5872 9.33359 56.766C10.528 54.5966 27.8397 22.1621 27.8397 22.1621C28.884 15.1214 28.0978 7.78805 25.3429 0.832996C25.5246 0.202996 26.216 -0.0777371 26.6466 0.0184764C27.9582 1.48409 29.3567 2.8403 30.8198 4.08449C33.4746 6.89577 58.8259 13.1325 64.0315 13.3922C65.991 13.4554 122.018 19.6329 134.525 24.7111C142.844 29.3162 161.325 43.1854 162.862 43.934L178.952 48.0356C186.123 48.3849 193.445 46.8705 200.135 43.3778C200.687 43.4398 201.053 43.9327 201.07 44.5825Z" fill="white"/>
</svg>
