<svg width="320" height="262" viewBox="0 0 320 262" fill="none" xmlns="http://www.w3.org/2000/svg">
<path d="M186.989 15.6361C184.39 19.2864 180.73 24.7543 176.038 32.04C186.989 40.3806 197.162 50.0089 206.546 60.9448C219.591 76.5711 226.104 92.4648 226.104 108.601C220.896 113.291 215.678 117.982 210.46 122.667C205.252 127.353 200.029 132.826 194.811 139.071C188.552 146.882 183.86 154.831 180.73 162.899C177.6 170.982 176.038 179.442 176.038 188.292C176.038 202.354 179.559 214.993 186.598 226.182C193.641 237.39 202.772 246.102 213.981 252.353C225.206 258.603 237.06 261.728 249.579 261.728C262.098 261.728 273.709 258.484 284.398 251.961C295.096 245.458 303.702 236.083 310.214 223.834C316.741 211.606 320 197.148 320 180.477C320 159.125 314.658 136.466 303.96 112.504C293.276 88.552 278.664 66.4078 260.148 46.0962C241.643 25.7845 221.163 10.4257 198.73 0C193.522 6.7755 189.608 11.9859 186.994 15.6262L186.989 15.6361ZM10.9515 15.6361C8.34756 19.2864 4.69208 24.7543 0 32.04C10.9515 40.3806 21.1244 50.0089 30.5085 60.9448C43.5532 76.5711 50.0656 92.4648 50.0656 108.601C44.8576 113.291 39.6348 117.982 34.4219 122.667C29.214 127.353 23.9912 132.826 18.7733 139.071C12.5139 146.882 7.82181 154.831 4.69208 162.899C1.56238 170.982 0 179.442 0 188.292C0 202.354 3.5166 214.993 10.5597 226.182C17.6028 237.39 26.734 246.102 37.9435 252.353C49.1628 258.603 61.0221 261.728 73.5409 261.728C86.0598 261.728 97.671 258.484 108.36 251.961C119.053 245.458 127.664 236.083 134.176 223.834C140.703 211.606 143.957 197.148 143.957 180.477C143.957 159.125 138.615 136.466 127.922 112.504C117.238 88.552 102.626 66.4078 84.1105 46.0962C65.6001 25.7845 45.1255 10.4257 22.6917 0C17.4838 6.7755 13.5704 11.9859 10.9565 15.6262L10.9515 15.6361Z" fill="#1C1C40"/>
</svg>
