<svg width="26" height="26" viewBox="0 0 26 26" fill="none" xmlns="http://www.w3.org/2000/svg">
<path d="M19.5977 6.40051H19.6097M7 1H19C22.3137 1 25 3.68629 25 7V19C25 22.3137 22.3137 25 19 25H7C3.68629 25 1 22.3137 1 19V7C1 3.68629 3.68629 1 7 1ZM17.7997 12.2442C17.9477 13.2429 17.7772 14.2629 17.3122 15.159C16.8472 16.0552 16.1114 16.7819 15.2096 17.2358C14.3078 17.6897 13.2858 17.8477 12.289 17.6873C11.2922 17.5269 10.3714 17.0563 9.65746 16.3424C8.94355 15.6285 8.47293 14.7077 8.31253 13.7109C8.15213 12.7141 8.31013 11.6921 8.76404 10.7903C9.21796 9.88844 9.94467 9.15271 10.8408 8.68771C11.737 8.22271 12.757 8.05212 13.7557 8.20022C14.7744 8.35128 15.7175 8.82597 16.4457 9.55418C17.1739 10.2824 17.6486 11.2255 17.7997 12.2442Z" stroke="#1C1C40" stroke-width="2" stroke-linecap="round" stroke-linejoin="round"/>
</svg>
